<?xml version="1.0" encoding="UTF-8" standalone="no"?>
<svg width="50px" height="200px" viewBox="0 0 50 200" version="1.1" xmlns="http://www.w3.org/2000/svg" xmlns:xlink="http://www.w3.org/1999/xlink" xmlns:sketch="http://www.bohemiancoding.com/sketch/ns">
    <title>involved</title>
    <description>Created with Sketch (http://www.bohemiancoding.com/sketch)</description>
    <defs></defs>
    <g id="Page-1" stroke="none" stroke-width="1" fill="none" fill-rule="evenodd" sketch:type="MSPage">
        <g id="Group" sketch:type="MSLayerGroup" transform="translate(7.000000, 11.000000)" fill="#92D13D">
            <path d="M10.5329709,11.6683871 L0,3.70296774 L0,22.0377634 L10.5329709,11.6683871 L10.5329709,11.6683871 Z M35.9063301,0 L0.123728155,0 L18.0007864,13.5193118 L35.9063301,0 L35.9063301,0 Z M23.0116019,13.5302366 L17.9992136,17.3146667 L12.9789612,13.5181075 L0.0436893204,26.2525591 L35.9345534,26.2525591 L23.0116019,13.5302366 L23.0116019,13.5302366 Z M25.4592524,11.6821505 L36,22.0591828 L36,3.72352688 L25.4592524,11.6821505 L25.4592524,11.6821505 Z" id="email-icon" sketch:type="MSShapeGroup"></path>
            <path d="M35.967932,163.049032 L36,162.720516 C33.9993786,162.529462 32.0096796,162.51243 30.0766019,162.65772 C30.3874078,161.681634 30.551068,160.579097 30.5392718,159.325333 C30.5137573,156.661677 29.6116602,154.587183 28.193767,152.865462 C28.4660388,151.243785 28.2609612,149.62228 27.7471748,148 C25.7211262,148.163269 23.8978835,148.816602 22.274301,149.951484 C19.2400777,149.345548 16.2061165,149.306925 13.1718932,149.951484 C11.2781359,148.693247 9.41845631,148.076043 7.58761165,148 C7.04499029,149.786237 6.96119417,151.546925 7.4201068,153.278022 C5.82282524,154.946581 5.2122233,156.972129 5.24219417,159.21514 C5.25932039,160.499183 5.46029126,161.64172 5.83095146,162.651871 C3.9264466,162.514323 1.96872816,162.532645 0,162.720516 L0.0320679612,163.049032 C2.03714563,162.857376 4.03051456,162.841634 5.96673786,162.99071 C6.03786408,163.160516 6.10942718,163.329548 6.19103883,163.490925 C4.09316505,163.436473 2.205,163.615914 0.436805825,164.044043 L0.516669903,164.364301 C2.31125243,163.930065 4.23375728,163.755183 6.38038835,163.826323 C7.79994175,166.309247 10.5326214,167.768172 14.5121068,168.231054 C13.5875534,168.970323 13.0905437,169.842323 12.9624466,170.828989 L10.8547864,170.828989 C8.02424272,170.828989 7.25251456,167.275957 4.32069903,167.626495 C7.16504854,169.015054 6.59708738,173.453677 11.1483786,173.453677 L13.0603107,173.453677 L13.0603107,177.522151 C13.0807573,178.179613 12.7900485,178.619269 12.320301,178.924043 C13.9502621,179.086108 15.1753107,178.284903 15.1753107,177.302194 L15.1753107,171.924301 C15.1753107,171.445161 15.6849903,171.408172 15.6849903,171.408172 L15.6849903,177.687054 C15.7063981,178.312 15.3980388,178.667011 15.0706311,179.006538 C16.5066117,179.062796 17.8573107,178.780387 17.9184757,177.57729 L17.9184757,171.568086 C17.9184757,171.265978 18.4214272,171.258495 18.4214272,171.568086 L18.4214272,177.295398 C18.4361942,178.310452 19.3267573,179.133419 21.2134369,179.006624 C20.7087379,178.606624 20.5538155,178.202323 20.5538155,177.617376 L20.5538155,171.408258 C20.5538155,171.408258 21.0737184,171.381935 21.0737184,171.924387 L21.0737184,177.161462 C21.0737184,178.327054 22.4951068,178.807914 24.1170291,178.762753 C23.5856796,178.370667 23.2261165,177.903312 23.2237573,177.278366 L23.2237573,170.980129 C23.1687961,170.054366 22.7866019,169.181763 22.0369806,168.368688 C25.6745534,167.818839 28.2965243,166.389247 29.6020485,163.827097 C31.7556699,163.754237 33.6839417,163.92886 35.4832427,164.364387 L35.5631068,164.044129 C33.7811068,163.612817 31.8773883,163.43372 29.759767,163.492301 C29.8330777,163.329634 29.9056893,163.166366 29.9685146,162.994667 C31.9249223,162.84 33.9405728,162.85514 35.967932,163.049032 L35.967932,163.049032 Z M5.59223301,168.156817 C5.50284466,168.156817 5.43032039,168.106237 5.43032039,168.043871 C5.43032039,167.981247 5.50284466,167.930753 5.59223301,167.930753 C5.68170874,167.930753 5.75423301,167.981333 5.75423301,168.043871 C5.75423301,168.106323 5.68170874,168.156817 5.59223301,168.156817 L5.59223301,168.156817 Z M6.10191262,168.499183 C6.00256311,168.499183 5.92191262,168.443011 5.92191262,168.373591 C5.92191262,168.304172 6.00256311,168.247828 6.10191262,168.247828 C6.20126214,168.247828 6.28182524,168.304172 6.28182524,168.373591 C6.28182524,168.443011 6.20126214,168.499183 6.10191262,168.499183 L6.10191262,168.499183 Z M6.61893204,168.943828 C6.50245631,168.943828 6.40791262,168.877935 6.40791262,168.796559 C6.40791262,168.715183 6.50245631,168.649118 6.61893204,168.649118 C6.73540777,168.649118 6.83003883,168.715183 6.83003883,168.796559 C6.83003883,168.877935 6.73540777,168.943828 6.61893204,168.943828 L6.61893204,168.943828 Z M7.12135922,169.477763 C6.98504854,169.477763 6.87451456,169.400688 6.87451456,169.305462 C6.87451456,169.210237 6.98504854,169.132989 7.12135922,169.132989 C7.2576699,169.132989 7.36820388,169.210237 7.36820388,169.305462 C7.36820388,169.400688 7.2576699,169.477763 7.12135922,169.477763 L7.12135922,169.477763 Z M7.67472816,170.081204 C7.52330097,170.081204 7.4004466,169.995527 7.4004466,169.88972 C7.4004466,169.783914 7.52330097,169.698065 7.67472816,169.698065 C7.82615534,169.698065 7.94900971,169.783914 7.94900971,169.88972 C7.94900971,169.995527 7.82615534,170.081204 7.67472816,170.081204 L7.67472816,170.081204 Z M8.31556311,170.693935 C8.14727184,170.693935 8.01078641,170.59871 8.01078641,170.481118 C8.01078641,170.363527 8.14727184,170.268129 8.31556311,170.268129 C8.48376699,170.268129 8.62025243,170.363527 8.62025243,170.481118 C8.62025243,170.59871 8.48376699,170.693935 8.31556311,170.693935 L8.31556311,170.693935 Z M9.18200971,171.276645 C8.99501942,171.276645 8.84341748,171.170753 8.84341748,171.040172 C8.84341748,170.909505 8.99501942,170.803527 9.18200971,170.803527 C9.369,170.803527 9.52060194,170.909505 9.52060194,171.040172 C9.52060194,171.170753 9.369,171.276645 9.18200971,171.276645 L9.18200971,171.276645 Z M10.256068,171.588473 C10.0690777,171.588473 9.91747573,171.482581 9.91747573,171.352 C9.91747573,171.221333 10.0690777,171.115355 10.256068,171.115355 C10.4430583,171.115355 10.5946602,171.221333 10.5946602,171.352 C10.5946602,171.482581 10.4430583,171.588473 10.256068,171.588473 L10.256068,171.588473 Z M11.3883204,171.624344 C11.2013301,171.624344 11.0497282,171.518452 11.0497282,171.387871 C11.0497282,171.257204 11.2013301,171.151226 11.3883204,171.151226 C11.5753107,171.151226 11.7269126,171.257204 11.7269126,171.387871 C11.7269126,171.518452 11.5753107,171.624344 11.3883204,171.624344 L11.3883204,171.624344 Z M12.506068,171.645849 C12.3190777,171.645849 12.1674757,171.539957 12.1674757,171.409376 C12.1674757,171.27871 12.3190777,171.172731 12.506068,171.172731 C12.6930583,171.172731 12.8446602,171.27871 12.8446602,171.409376 C12.8446602,171.539957 12.6930583,171.645849 12.506068,171.645849 L12.506068,171.645849 Z" id="github-2-icon" sketch:type="MSShapeGroup"></path>
            <path d="M10.4462039,98.0789677 C10.4462039,96.9308387 11.3917282,96 12.5579709,96 C13.95,96 14.9600097,97.3042581 14.5966019,98.6232258 C14.4599417,99.119828 14.5333398,99.6497204 14.8003689,100.092043 C15.3922718,101.072688 16.4007087,101.676559 17.7188155,101.683355 C19.0187476,101.676559 20.040466,101.08086 20.6372621,100.092043 C20.9042913,99.6497204 20.9776893,99.119828 20.8410291,98.6232258 C20.4781456,97.3059785 21.4857961,96 22.8796602,96 C24.0459029,96 24.9914272,96.9308387 24.9914272,98.0789677 C24.9914272,99.0756989 24.2806893,99.9016774 23.3417184,100.108215 C22.866466,100.212731 22.4560485,100.50572 22.2072816,100.917849 C21.2479515,102.507269 22.6404175,103.90443 23.7726699,105.323269 C20.3130874,107.104774 15.1244563,107.104774 11.6649612,105.323269 C12.8147767,103.882495 14.1967573,102.51914 13.2304369,100.917849 C12.9814951,100.50572 12.5712524,100.212817 12.0959126,100.108215 C11.156767,99.9016774 10.4462039,99.0756989 10.4462039,98.0789677 L10.4462039,98.0789677 Z M30.3563883,118.818581 L33.8815049,118.818581 C34.7409612,118.818581 35.4376311,118.132731 35.4376311,117.28671 C35.4376311,116.440688 34.7409612,115.754839 33.8815049,115.754839 L30.3343689,115.754839 C29.4847864,115.754839 28.6553883,115.174968 28.5222233,114.201118 C28.3867864,113.20129 28.9448738,112.507613 29.6513301,112.233376 L32.9463786,110.954065 C33.7458932,110.643699 34.1383981,109.754065 33.8230485,108.966968 C33.5078738,108.179957 32.6042039,107.793548 31.8047767,108.103914 L28.4166699,109.419355 C27.9319806,109.60757 27.3325631,109.472946 27.0496311,108.826409 C26.7187282,108.07028 26.343699,107.363871 25.9284757,106.722753 C22.9032524,108.063742 20.3113398,108.734624 17.7189903,108.734624 C15.1272524,108.734624 12.535165,108.064172 9.50915534,106.722753 C9.10371845,107.348817 8.7365534,108.037075 8.41141748,108.773161 C8.07605825,109.532473 7.45663107,109.588473 7.02113592,109.419355 L3.63302913,108.103914 C2.83360194,107.793548 1.92993204,108.179957 1.6146699,108.966968 C1.29940777,109.754065 1.69182524,110.643699 2.49133981,110.954065 L5.78638835,112.233376 C6.51870874,112.517677 7.04787379,113.258495 6.92737864,114.114581 C6.7704466,115.233892 5.91929126,115.754753 5.10334951,115.754753 L1.55612621,115.754753 C0.696669903,115.754753 -3.55271368e-15,116.440602 -3.55271368e-15,117.286624 C-3.55271368e-15,118.132645 0.696669903,118.818495 1.55612621,118.818495 L5.08115534,118.818495 C5.92645631,118.818495 6.79220388,119.367656 6.94826214,120.378495 C7.1148932,121.453333 6.61202913,122.19286 5.83960194,122.537032 L2.26607767,124.128516 C1.48307767,124.477247 1.13557282,125.384774 1.48971845,126.155527 C1.84412621,126.92714 2.76675728,127.268129 3.54870874,126.919828 L7.32914563,125.236215 C7.7825534,125.034151 8.3454466,125.07914 8.65931068,125.618495 C10.2017184,128.27114 13.3026117,130.948817 17.7188155,131.44086 C22.0486893,130.958452 25.1141068,128.375054 26.6860485,125.774194 C27.0711262,125.13686 27.6127864,125.015312 28.1084854,125.236215 L31.8889223,126.919828 C32.6699126,127.267871 33.5931553,126.927914 33.948,126.155527 C34.3021456,125.384688 33.9545534,124.477161 33.1715534,124.128516 L29.5980291,122.537032 C28.8666699,122.211183 28.3176699,121.447828 28.470932,120.495312 C28.6621165,119.308387 29.532233,118.818581 30.3563883,118.818581 L30.3563883,118.818581 Z" id="bug-icon" sketch:type="MSShapeGroup"></path>
            <path d="M33.5665825,59.5436559 L33.5665825,73.6237419 L19.8132718,81.4408602 L19.8132718,67.3607742 L33.5665825,59.5436559 L33.5665825,59.5436559 Z M17.7832913,63.8993548 L33.5290097,54.9496774 L17.7832913,46 L2.03757282,54.9497634 L17.7832913,63.8993548 L17.7832913,63.8993548 Z M15.7533107,67.3607742 L2,59.5436559 L2,73.6237419 L15.7533107,81.4408602 L15.7533107,67.3607742 L15.7533107,67.3607742 Z" id="3d-view-icon" sketch:type="MSShapeGroup"></path>
        </g>
    </g>
</svg>