<svg id="Layer_1" data-name="Layer 1" xmlns="http://www.w3.org/2000/svg" viewBox="0 0 400 400"><title>logos-SVG-400x400-playframework-grey</title><g id="layer1"><path d="M34,213.78s3.13.09,7,.09h7l5.78-8.13c3.18-4.48,5.82-8.2,5.87-8.27a10,10,0,0,1,2.51-.19l2.41-.05,0-4.76a35,35,0,0,0-.09-4.91c-.1-.12-.68-.16-2.47-.19l-2.34,0-5.32-7.79c-2.93-4.28-5.42-7.85-5.52-7.93s-1.68-.14-6.73-.14c-3.72,0-6.61,0-6.7.1s-.13.15,0,.26c.84,1.06,14.59,20.35,14.59,20.47s-3.58,4.93-8,10.77S34,213.73,34,213.78Z" fill="#bfbfbf"/><path d="M73.81,163.07H25v58.24H91.08L106.65,229c8.56,4.22,15.64,7.74,15.72,7.82a.59.59,0,0,0,.2.15s0-16.62,0-36.93V163.07ZM66,217.29H33v-49H66Zm39.93-3.34-7,0-3.33-4.68L89.66,201l-2.55-3.6H79.26l-.05,8.24-.05,8.24-5.58,0c-3.07,0-5.61,0-5.65,0s-.08-9.61-.08-21.25V171.47l5.65,0,5.66,0,0,7.83c0,6.1.06,7.86.17,7.93s7.34.11,7.62,0c.11,0,2.5-3.45,5.33-7.58s5.25-7.67,5.4-7.87l.28-.37,6.84,0c5.22,0,6.84.07,6.84.17s-3.28,4.7-7.28,10.28-7.29,10.22-7.31,10.31,3.56,5,7.93,10.8,7.94,10.68,7.92,10.75S110.54,213.93,105.88,213.95Z" fill="#bfbfbf"/><g id="g3004"><path id="path3006" d="M248.23,215.89c-7.35-.58-11.45-2.1-14.56-5.37-2.28-2.4-3.47-5-4.1-9.05-.19-1.19-.2-2.27-.2-11.88,0-11.66,0-11.64.74-14.44,1.57-6,5.9-9.76,12.64-11.12.77-.15,2.57-.42,4-.59a42.32,42.32,0,0,1,6.65-.31,42.32,42.32,0,0,1,6.65.31c4.35.52,6.62,1.08,8.94,2.23a13,13,0,0,1,3.91,2.78c2.53,2.54,3.76,5.27,4.4,9.78.11.77.15,3.6.15,11.48,0,9.5,0,10.57-.2,11.76-.64,4.08-1.87,6.75-4.22,9.19-3.08,3.18-7.24,4.68-14.6,5.24-1.74.13-8.47.13-10.18,0ZM256.42,204a9.89,9.89,0,0,0,3.9-.87c1.4-.7,2.19-1.88,2.65-4,.24-1.09.25-1.3.25-9.52s0-8.43-.25-9.54c-.59-2.67-1.87-4-4.29-4.55a36.9,36.9,0,0,0-7.48-.31,11.41,11.41,0,0,0-4.46.8c-1.67.78-2.51,2.09-3,4.62-.16.86-.19,2.17-.23,8.07-.05,7.61,0,9.07.48,10.92a5,5,0,0,0,1.55,2.82c1,.94,2.21,1.34,4.67,1.54a49.34,49.34,0,0,0,6.18,0Zm44.71,11.93c-8.41-.63-12.72-2.46-15-6.37a12.52,12.52,0,0,1-1.26-3.8c-.46-2.73-.47-2.81-.47-22.84V163.57H298l.06,18c.06,16.61.08,18.07.26,18.74a4.49,4.49,0,0,0,3.9,3.5,53.57,53.57,0,0,0,9.27,0,4,4,0,0,0,3.22-2.29c.58-1.31.55-.51.62-19.85l.06-18.13,6.75,0a58.9,58.9,0,0,1,6.91.1c.14.11.15,2.86.12,18.89,0,20.68,0,19.79-.76,22.74-1.41,5.61-4.93,8.7-11.39,10-2.86.57-4.11.66-9.53.7-2.78,0-5.65,0-6.36-.07Zm-162.69-.36c0-.08,0-11.8,0-26.05l0-25.91h13.64l0,9.65c0,6.9.07,9.69.16,9.8s.58.15,2.07.15a14.55,14.55,0,0,0,2.07-.09c.07,0,3.08-4.4,6.69-9.69s6.64-9.67,6.74-9.75,16.44-.21,16.56,0-4,5.76-8.94,12.67-9,12.66-9,12.78,3.36,4.75,9.79,13.32c5.4,7.21,9.8,13.15,9.77,13.19s-3.86.09-8.5.09H171l-.33-.43c-.18-.23-3.46-4.84-7.29-10.23l-7-9.8h-2.08c-1.79,0-2.09,0-2.15.18s-.07,4.7-.07,10.23v10h-6.82C140,215.67,138.48,215.64,138.44,215.53Zm51.94,0c0-.08,0-11.8,0-26.05l0-25.91H204l0,19.88c0,14.42.06,19.92.16,20s2,.16,10.88.18l10.75,0v11.93l-17.7,0c-14.1,0-17.72,0-17.76-.11Zm156.74.07s-.08-9-.08-19.92,0-19.9-.09-20-1.58-.15-6.68-.17l-6.59,0V163.57l20.66,0,20.66,0v12h-7c-5.27,0-7,0-7.1.14s-.14,4.72-.14,20.06v19.92H354c-3.74,0-6.83,0-6.88-.08Z" fill="#bfbfbf"/></g></g></svg>