<svg id="Layer_1" data-name="Layer 1" xmlns="http://www.w3.org/2000/svg" viewBox="0 0 400 400"><title>logos-SVG-400x400-playframework-grey</title><path d="M81.1,154.12a43.18,43.18,0,0,0-17.56,3.5,42.6,42.6,0,0,0-13.77,9.62,43.51,43.51,0,0,0-9,14.42A50.32,50.32,0,0,0,37.5,199.8a53.3,53.3,0,0,0,3.14,18.62,42.42,42.42,0,0,0,9,14.55,41,41,0,0,0,14,9.53,47,47,0,0,0,18.13,3.38,52.27,52.27,0,0,0,21.47-4.36,38.46,38.46,0,0,0,16.14-14.06l-7.82-6.56A31.16,31.16,0,0,1,99,232.11a37.18,37.18,0,0,1-17.11,4.24c-6.76,0-12.35-1.3-16.62-3.87a33.61,33.61,0,0,1-15.57-20.29,40.33,40.33,0,0,1-1.43-9.33v-.37h73.83v-7.62A44.11,44.11,0,0,0,119.48,180a39.71,39.71,0,0,0-7.82-13.12,38.32,38.32,0,0,0-12.84-9.25,43.53,43.53,0,0,0-17.73-3.46h0ZM111.33,193H48.18v-.37a24.65,24.65,0,0,1,1.55-6.48,35.27,35.27,0,0,1,5.17-9.7,34.52,34.52,0,0,1,9.9-8.84c4.16-2.57,9.45-3.87,15.69-3.87a31.82,31.82,0,0,1,21.84,8.6,30.68,30.68,0,0,1,6.56,9.17,26.6,26.6,0,0,1,2.4,11.21V193h0Zm67.19-38.83a43.18,43.18,0,0,0-17.56,3.5,42.6,42.6,0,0,0-13.77,9.62,43.51,43.51,0,0,0-9,14.42,50.32,50.32,0,0,0-3.22,18.13,53.3,53.3,0,0,0,3.14,18.62A42.42,42.42,0,0,0,147,233a41,41,0,0,0,14,9.53,47,47,0,0,0,18.13,3.38,52.27,52.27,0,0,0,21.47-4.36,38.46,38.46,0,0,0,16.14-14.06l-7.82-6.56a31.16,31.16,0,0,1-12.47,11.21,37.18,37.18,0,0,1-17.11,4.24c-6.76,0-12.35-1.3-16.62-3.87a33.61,33.61,0,0,1-15.57-20.29,40.33,40.33,0,0,1-1.43-9.33v-.37h73.83v-7.62A44.11,44.11,0,0,0,216.91,180a39.71,39.71,0,0,0-7.82-13.12,38.32,38.32,0,0,0-12.84-9.25,43.53,43.53,0,0,0-17.73-3.46h0ZM208.76,193H145.6v-.37a24.65,24.65,0,0,1,1.55-6.48,35.27,35.27,0,0,1,5.17-9.7,34.52,34.52,0,0,1,9.9-8.84c4.16-2.57,9.45-3.87,15.69-3.87a31.82,31.82,0,0,1,21.84,8.6,30.68,30.68,0,0,1,6.56,9.17,26.6,26.6,0,0,1,2.4,11.21V193h0Zm107.86-38.83a49.79,49.79,0,0,0-18.5,3.38A42.38,42.38,0,0,0,283.57,167a44.87,44.87,0,0,0-9.45,14.55,51.84,51.84,0,0,0,0,36.84A43.58,43.58,0,0,0,283.57,233a42.19,42.19,0,0,0,14.55,9.53,49.79,49.79,0,0,0,18.5,3.38A49.21,49.21,0,0,0,335,242.5a42.68,42.68,0,0,0,24.08-24.08,51.84,51.84,0,0,0,0-36.84A42.68,42.68,0,0,0,335,157.5,49.06,49.06,0,0,0,316.62,154.12Zm0,82.23A35.85,35.85,0,0,1,302,233.45a34.16,34.16,0,0,1-11.16-7.78,33.22,33.22,0,0,1-7-11.53,42.54,42.54,0,0,1,0-28.2,33.22,33.22,0,0,1,7-11.53A33.73,33.73,0,0,1,302,166.63a38.22,38.22,0,0,1,29.18,0,34.16,34.16,0,0,1,11.16,7.78,33.22,33.22,0,0,1,7,11.53,42.54,42.54,0,0,1,0,28.2,33.22,33.22,0,0,1-7,11.53,33.73,33.73,0,0,1-11.16,7.78A35.72,35.72,0,0,1,316.62,236.35Zm-84.39,7.29h10.72V196a41.93,41.93,0,0,1,1.71-12.18,27.77,27.77,0,0,1,5.3-9.94,24.36,24.36,0,0,1,9.09-6.64,32.32,32.32,0,0,1,12.63-2.4V155c-12.47.29-22.21,4.07-29,11.33-11.16,11.9-10.43,29.22-10.43,29.38v48h0Z" fill="#bfbfbf"/></svg>