<svg id="Layer_1" data-name="Layer 1" xmlns="http://www.w3.org/2000/svg" viewBox="0 0 400 400"><title>logos-SVG-400x400-playframework-grey</title><path d="M227.63,202.48c0-8.15-3.48-15.32-15.24-15.32a27.87,27.87,0,0,0-13.45,3.21l1.92,6.55a19.7,19.7,0,0,1,9.81-2.76c6,0,6.94,3.38,6.94,5.55v.51c-13,0-21.23,4.48-21.23,13.66,0,5.6,4.19,10.85,11.46,10.85a13,13,0,0,0,10.46-4.65h.22s1.49,6.21,9.67,3.84a52.51,52.51,0,0,1-.57-8.67Zm-9.71,8.61a6.36,6.36,0,0,1-6.8,6.54c-2.69,0-4.83-1.53-4.83-4.76,0-4.94,5.44-6.3,11.63-6.27Z" fill="#bfbfbf"/><path d="M25,176.07s8.5,34.82,9.85,40.48c1.58,6.6,4.44,9,12.66,7.39l5.31-21.59c1.34-5.36,2.25-9.19,3.11-14.64h.15a143.08,143.08,0,0,0,2.58,14.66s2.16,9.8,3.27,14.95,4.2,8.39,12.25,6.62l12.64-47.86H76.62L72.3,196.76c-1.16,6-2.21,10.73-3,16.24h-.14c-.74-5.46-1.68-10-2.86-15.84l-4.5-21.09H51.14l-4.81,20.56c-1.36,6.25-2.64,11.29-3.45,16.61h-.15c-.83-5-1.94-11.35-3.13-17.4,0,0-2.86-14.71-3.86-19.77Z" fill="#bfbfbf"/><path d="M115.84,202.48c0-8.15-3.48-15.32-15.24-15.32a27.86,27.86,0,0,0-13.45,3.21l1.91,6.55a19.7,19.7,0,0,1,9.81-2.76c6,0,6.95,3.38,6.95,5.55v.51c-13,0-21.23,4.48-21.23,13.66,0,5.6,4.18,10.85,11.46,10.85a13,13,0,0,0,10.47-4.65h.22s1.49,6.21,9.67,3.84a52.55,52.55,0,0,1-.57-8.67Zm-9.71,8.61a6.36,6.36,0,0,1-6.8,6.54c-2.69,0-4.83-1.53-4.83-4.76,0-4.94,5.44-6.3,11.63-6.27Z" fill="#bfbfbf"/><polygon points="132.04 213.77 132.04 176.07 122.32 176.07 122.32 223.93 132.04 223.93 132.04 213.77" fill="#bfbfbf"/><path d="M259.21,176.07v35.31c0,4.87.92,8.28,2.88,10.36a10.77,10.77,0,0,0,7.91,3,23.1,23.1,0,0,0,7-1l-.13-7.59a14.8,14.8,0,0,1-3.69.44c-3.31,0-4.42-2.12-4.42-6.49V196.55h8.46v-9.16h-8.46V176.07Z" fill="#bfbfbf"/><path d="M234.11,188v36h10V205.52a13.68,13.68,0,0,1,.22-2.65c.74-3.86,3.69-6.32,7.93-6.32a18.34,18.34,0,0,1,2.89.26v-9.41a9.67,9.67,0,0,0-2.21-.22c-3.74,0-8,2.42-9.79,7.59h-.27V188Z" fill="#bfbfbf"/><path d="M138.85,188v36h9.77V202.85a8.44,8.44,0,0,1,.46-2.94c.81-2.12,2.78-4.61,5.94-4.61,3.94,0,5.79,3.33,5.79,8.14v20.49h9.76V202.59a10,10,0,0,1,.41-2.91,6.16,6.16,0,0,1,5.86-4.38c4,0,5.92,3.27,5.92,8.94v19.7h9.77V202.76c0-11.17-5.67-15.59-12.07-15.59a13,13,0,0,0-7.1,2,15.14,15.14,0,0,0-4.55,4.48h-.14a10.26,10.26,0,0,0-9.91-6.43c-6.08,0-8.81,3.08-10.47,5.7h-.14V188Z" fill="#bfbfbf"/><path d="M329.8,186.53c1.93,0,3.52-1,3.74-2.3l1.91-21.58c0-2.13-2.5-3.89-5.64-3.89s-5.63,1.75-5.63,3.89l1.91,21.58c.21,1.3,1.8,2.3,3.73,2.3Z" fill="#bfbfbf"/><path d="M318.14,193.27c1-1.67.89-3.55-.13-4.39l-17.74-12.44c-1.84-1.07-4.61.22-6.18,2.94s-1.29,5.76.55,6.82l19.64,9.14c1.23.46,2.9-.42,3.86-2.09Z" fill="#bfbfbf"/><path d="M341.47,193.26c1,1.67,2.63,2.55,3.86,2.09L365,186.2c1.85-1.07,2.11-4.1.55-6.82s-4.35-4-6.19-2.94L341.6,188.88c-1,.83-1.09,2.71-.12,4.39Z" fill="#bfbfbf"/><path d="M329.8,213.48c1.93,0,3.52,1,3.74,2.3l1.91,21.58c0,2.14-2.5,3.88-5.64,3.88s-5.63-1.75-5.63-3.88l1.91-21.58c.21-1.3,1.8-2.3,3.73-2.3Z" fill="#bfbfbf"/><path d="M341.47,206.74c1-1.67,2.63-2.54,3.86-2.08L365,213.79c1.85,1.07,2.11,4.11.55,6.83s-4.35,4-6.19,2.94L341.6,211.13c-1-.84-1.09-2.72-.12-4.39Z" fill="#bfbfbf"/><path d="M318.14,206.74c1,1.67.89,3.55-.13,4.39l-17.74,12.43c-1.84,1.06-4.61-.23-6.18-2.94s-1.29-5.76.55-6.83l19.64-9.13c1.23-.46,2.9.41,3.87,2.08Z" fill="#bfbfbf"/><path d="M371.89,219.16a3.09,3.09,0,1,1-3.17,3.07,3.06,3.06,0,0,1,3.17-3.07Zm0,.54a2.54,2.54,0,0,0,0,5.08,2.42,2.42,0,0,0,2.42-2.53,2.45,2.45,0,0,0-2.43-2.55Zm-.54,4.23h-.6V220.7a6.22,6.22,0,0,1,1.12-.1,1.6,1.6,0,0,1,1,.25.82.82,0,0,1-.31,1.45v0a1,1,0,0,1,.54.77,2.37,2.37,0,0,0,.23.81h-.62a2.22,2.22,0,0,1-.25-.85c-.08-.35-.29-.5-.75-.5h-.39Zm0-1.82h.41c.44,0,.83-.14.83-.52s-.19-.52-.77-.52a2.25,2.25,0,0,0-.46,0Z" fill="#bfbfbf"/></svg>