<svg id="Layer_1" data-name="Layer 1" xmlns="http://www.w3.org/2000/svg" viewBox="0 0 400 400"><title>logos-SVG-400x400-playframework-grey</title><path d="M25,130v9.58H93.13V130Zm77.78,0v9.58h97.08S189.95,130,176.81,130Zm116.13,0v9.58h58.73L274.16,130Zm100.84,0-3.49,9.58h58.2V130ZM25,148.63v9.58H93.13v-9.58Zm77.78,0v9.56H211.13s-1.27-7.37-3.47-9.56Zm116.13,0v9.56h65.17l-3.23-9.56Zm93.87,0-3.23,9.56h64.91v-9.56ZM44.58,167.26v9.59h29.5v-9.59Zm77.78,0v9.59h29.5v-9.59Zm58.2,0v9.59h29.5a32.64,32.64,0,0,0,1.87-9.59Zm57.93,0v9.59h52.31l-3.49-9.59Zm67.87,0-3.5,9.59h52.57v-9.59ZM44.58,185.9v9.58h29.5V185.9Zm77.78,0v9.58h75.36s6.3-4.91,8.31-9.58Zm116.13,0v9.58H268v-5.33l1.87,5.33h54l2-5.33v5.33h29.5V185.9H300L297.1,194l-3-8.11ZM44.58,204.52v9.58h29.5v-9.58Zm77.78,0v9.58H206c-2-4.65-8.31-9.58-8.31-9.58Zm116.13,0v9.58H268v-9.58Zm34.86,0,3.57,9.58h40.52l3.39-9.58Zm52.57,0v9.58h29.5v-9.58ZM44.58,223.15v9.58h29.5v-9.58Zm77.78,0v9.58h29.5v-9.58Zm58.2,0v9.58h31.38a32.55,32.55,0,0,0-1.87-9.58Zm57.93,0v9.58H268v-9.58Zm41.56,0,3.46,9.58h27.17l3.49-9.58Zm45.87,0v9.58h29.5v-9.58ZM25.53,241.78v9.59H93.66v-9.59Zm77.25,0v9.59H207.66c2.21-2.2,3.47-9.59,3.47-9.59Zm116.66,0v9.59H268v-9.59Zm67.32,0,3.55,9.59h13.82l3.34-9.59Zm39.16,0v9.59H375v-9.59ZM25.53,260.42V270H93.66v-9.58Zm77.25,0V270h74c13.13,0,23.05-9.56,23.05-9.56Zm116.66,0V270H268v-9.58Zm74.06,0,3.42,9.55h.59l3.47-9.56Zm32.42,0V270H375v-9.58Z" fill="#bfbfbf"/></svg>