<svg id="Layer_1" data-name="Layer 1" xmlns="http://www.w3.org/2000/svg" viewBox="0 0 400 400"><title>logos-SVG-400x400-playframework-grey</title><g id="layer1"><g id="g2993"><g id="g4026"><path id="path3889" d="M204.22,188.58l-3.44,13.63-4.08-13.58h-7.14l-4,13.48L182,188.58h-8.76l7.73,24.7h8.17l3.89-14,3.88,14h8.21l7.63-24.7h-8.51Z" fill="#bfbfbf"/><path id="path3887" d="M222.16,187.87c-6.4,0-10.9,4.24-10.9,13.48,0,8.37,4.21,12.69,10.51,12.69a8.78,8.78,0,0,0,8-4.46l.59,3.72h8V188.57h-7.63L230,192c-1.52-2.76-4.19-4.11-7.83-4.11Zm2.38,7c2.56,0,4.46,1.72,4.46,6.14,0,4.08-1.84,6-4.46,6-2.8,0-4.11-2-4.11-5.95C220.42,196.63,221.93,194.86,224.53,194.86Z" fill="#bfbfbf"/><path id="path3883" d="M256,201c0,9.25,5.12,13,12.95,13,5.85,0,9.49-2.21,11.6-6.2l-6.44-3.69c-.69,1.82-2.26,2.86-4.63,2.86-3.25,0-4.38-2.26-4.38-6,0-4.43,1.63-5.66,4.48-5.66a4.16,4.16,0,0,1,4.23,2.71l6.5-4.72c-2.16-3.84-5.71-5.46-10.92-5.46-8.41,0-13.38,4-13.38,13.09" fill="#bfbfbf"/><path id="path3881" d="M321.61,187.87c-8.23,0-13,5.11-13,13.33,0,8.66,5.31,12.83,13.38,12.83,5.22,0,9.18-1.81,11.25-5.4l-5.5-3.47c-1,1.82-2.59,2.58-4.91,2.58-2.95,0-4.81-1.26-5.25-4.26h16a19.48,19.48,0,0,0,.2-2.82c0-7-3.44-12.78-12.14-12.78Zm-.1,6.54c2.27,0,3.52,1.45,3.67,4H317.5C317.79,195.76,319.3,194.41,321.51,194.41Z" fill="#bfbfbf"/><path id="path3877" d="M353.3,196c0,4.77,3.59,7.28,8.22,8.36l2.06.49c2,.44,2.91.79,2.91,1.77s-1,1.48-3.15,1.48c-3.15,0-6-1.08-7.43-3l-4.13,4.42c2.12,3,6.25,4.53,11.52,4.53,8.51,0,11.56-4,11.56-8.17,0-3.64-2.27-6.45-7.73-7.67l-2.85-.64c-2.07-.44-2.85-1-2.85-1.87,0-1.09,1.18-1.48,3-1.48a7.57,7.57,0,0,1,6.15,2.66l4.44-4.52c-2.32-3.05-6.15-4.38-10.83-4.38-7.48,0-10.87,3.44-10.87,8.07" fill="#bfbfbf"/><path id="path3875" d="M343.7,193.36l-.78-4.77H335.1v24.7h9.54v-8.81c.05-4.78,2.46-8,7.73-7.62l-.1-9.05a9.35,9.35,0,0,0-8.56,5.56" fill="#bfbfbf"/><path id="path3873" d="M240.29,181.7v23.22c0,7,4.43,9.1,9.7,9.1a13.67,13.67,0,0,0,7.08-1.77l-1.23-5.66a6.46,6.46,0,0,1-3.05.69c-2.11,0-3.15-1.13-3.15-3.3v-8.51h6v-6.89h-6V181.7Z" fill="#bfbfbf"/><path id="path3871" d="M281,178.9v34.38h9.54v-12c0-3.45,1.77-5.07,4.13-5.07s3.55,1.13,3.55,4.92v12.16h9.55V197.74c0-5.65-2.71-9.84-8.86-9.84a9.21,9.21,0,0,0-8.36,5.07V178.9Z" fill="#bfbfbf"/><path id="path3869" d="M56,188.64l-3.44,13.63-4.09-13.58H41.34l-4,13.48-3.59-13.54H25l7.73,24.71h8.17l3.88-14,3.89,14h8.21l7.63-24.71H56Z" fill="#bfbfbf"/><path id="path3867" d="M89.5,213.34H99v-24.7H89.5Z" fill="#bfbfbf"/><path id="path3865" d="M75.73,187.94c-8.21,0-13,5.06-13,13.28,0,8.66,5.3,12.83,13.38,12.83,5.22,0,9.18-1.76,11.25-5.35l-5.5-3.47c-1,1.82-2.59,2.53-4.91,2.53-3,0-4.86-1.21-5.3-4.21H87.67a20.15,20.15,0,0,0,.2-2.87C87.87,193.65,84.45,187.94,75.73,187.94Zm-.1,6.49c2.27,0,3.47,1.5,3.62,4.06H71.57C71.86,195.84,73.42,194.44,75.63,194.44Z" fill="#bfbfbf"/><path id="path3861" d="M111.76,187.94c-6.44,0-10.9,4.18-10.9,12.64S105.06,213,111.11,213c3.45,0,5.81-1.36,7.28-3.87v1c0,3.74-1.91,5.55-5.45,5.55a8.17,8.17,0,0,1-6.49-3.19l-5,4.65c1.81,3.16,7,5.14,11.83,5.14,8.42,0,14.57-4,14.57-12.34V188.64h-7.68l-.64,3.42c-1.58-2.71-4.33-4.11-7.83-4.11Zm2.33,6.94c2.6,0,4.41,1.91,4.41,5.5s-1.7,5.8-4.41,5.8-4.16-1.81-4.16-5.75C109.92,196.74,111.43,194.88,114.09,194.88Z" fill="#bfbfbf"/><path id="path3857" d="M158,181.75V205c0,7,4.43,9.1,9.7,9.1a13.7,13.7,0,0,0,7.08-1.77l-1.23-5.66a6.48,6.48,0,0,1-3.05.69c-2.11,0-3.15-1.13-3.15-3.3v-8.51h5.87v-6.89h-5.87v-6.88Z" fill="#bfbfbf"/><path id="path3855" d="M129.87,178.9v34.44h9.54v-12c.06-3.45,1.78-5.07,4.14-5.07s3.55,1.13,3.55,4.92v12.16h9.54V197.79c0-5.65-2.71-9.84-8.85-9.84a9.23,9.23,0,0,0-8.37,5.07V178.9Z" fill="#bfbfbf"/><path id="path3567" d="M89,182.39c0,3.14,1.92,4.58,5.31,4.58s5.22-1.43,5.22-4.58-1.87-4.68-5.22-4.68S89,179.14,89,182.39" fill="#bfbfbf"/></g></g></g></svg>