<svg id="Layer_1" data-name="Layer 1" xmlns="http://www.w3.org/2000/svg" viewBox="0 0 400 400"><title>logos-SVG-400x400-playframework-grey</title><path d="M238.09,90.17a46.29,46.29,0,0,0-38.2,20.65,46.29,46.29,0,0,0-38.2-20.65A45.7,45.7,0,0,0,116,135.88c0,16,10.15,27.57,20.74,38.25l41.44,39.18a3.41,3.41,0,0,0,5.74-2.47V180.31a16,16,0,1,1,32,0v30.52a3.41,3.41,0,0,0,5.74,2.47L263,174.13c10.6-10.69,20.74-22.24,20.74-38.25A45.7,45.7,0,0,0,238.09,90.17Zm-79.69,80.95a3.17,3.17,0,0,1-4.47.27c-13.65-12.1-20.57-24.72-20.57-37.53v-.15c0-11,6.72-23.52,15.62-29.11a3.17,3.17,0,0,1,3.37,5.37c-7.1,4.45-12.65,14.88-12.65,23.74v.15c0,10.92,6.2,21.95,18.44,32.79A3.17,3.17,0,0,1,158.39,171.12Zm20.38-11.75a3.17,3.17,0,0,1-4.31,1.22c-9.25-5.18-15.48-15.36-15.52-25.35v-.1a25.55,25.55,0,0,1,13.7-22.57,3.17,3.17,0,1,1,2.95,5.61,19.23,19.23,0,0,0-10.31,17c0,7.79,5,15.77,12.28,19.87A3.17,3.17,0,0,1,178.77,159.37Zm21.12-8.09a13.75,13.75,0,1,1,13.74-13.75A13.75,13.75,0,0,1,199.89,151.28Zm25.43,9.31a3.17,3.17,0,1,1-3.09-5.53c7.33-4.11,12.26-12.09,12.28-19.87a19.23,19.23,0,0,0-10.31-17,3.17,3.17,0,1,1,2.95-5.61,25.55,25.55,0,0,1,13.7,22.57v.1C240.8,145.23,234.57,155.4,225.32,160.59Zm41.1-26.72c0,12.81-6.92,25.43-20.57,37.53a3.17,3.17,0,0,1-4.2-4.74c12.23-10.84,18.44-21.87,18.44-32.79v-.15c0-8.86-5.56-19.29-12.65-23.74a3.17,3.17,0,0,1,3.37-5.37c8.9,5.59,15.62,18.1,15.62,29.11Z" fill="#bfbfbf"/><path d="M132,225.61h11V240.4H157V225.61h10.95v39.5H157v-15H142.91v15H132Z" fill="#bfbfbf"/><path d="M171.07,250v-.11c0-8.92,6.38-16,15.41-16,10.55,0,15.4,7.73,15.4,16.7,0,.68,0,1.46-.06,2.2H181.39a6.31,6.31,0,0,0,6.6,5c2.54,0,4.57-1,6.77-3.11l5.93,4.91a16,16,0,0,1-13.27,6.21C177.84,265.85,171.07,259.47,171.07,250Zm20.76-2.8a5.16,5.16,0,0,0-5.3-5.38c-2.82,0-5.05,2.18-5.3,5.38Z" fill="#bfbfbf"/><path d="M237.93,234.59h10.72v6.15c1.75-4.18,4.57-6.88,9.65-6.66v11.29h-.9c-5.58,0-8.75,3.21-8.75,10.27v9.48H237.93Z" fill="#bfbfbf"/><path d="M265,255.64V243.22h-3.6v-8.63H265v-7.73h10.73v7.73h7.11v8.63h-7.11v10.33c0,2.14,1,3,2.93,3a9.43,9.43,0,0,0,4.06-1V264a15.28,15.28,0,0,1-7.45,1.75C268.84,265.74,265,262.91,265,255.64Z" fill="#bfbfbf"/><circle cx="121.45" cy="228.46" r="5.69" fill="#bfbfbf"/><path d="M233.79,249.77c0-9.48-6.77-15.86-16.36-15.86a16,16,0,0,0-13.27,6.21l5.93,4.91c2.2-2.15,4.23-3.11,6.77-3.11a6.3,6.3,0,0,1,6.57,4.92v.23l-7.06,0c-8.77.11-13.38,3.38-13.38,9.58,0,6,4.25,9.16,11.57,9.16a12.29,12.29,0,0,0,9.06-3.68v2.94h10.15V250.18c0-.1,0-.19,0-.29Zm-16,9.25c-2.78.12-4.43-1.48-4.43-3.4s1.48-2.82,4.17-2.82h6.11v.33A5.73,5.73,0,0,1,217.77,259Z" fill="#bfbfbf"/><path d="M115,274.79a2.08,2.08,0,0,1,2-2h.47a2.28,2.28,0,0,1,1.94,1.1l13.09,19.7,13.1-19.7a2.23,2.23,0,0,1,1.94-1.1h.47a2.08,2.08,0,0,1,2,2v32.95a2.09,2.09,0,0,1-2,2.09,2.14,2.14,0,0,1-2.1-2.09V280.39l-11.73,17.24a2,2,0,0,1-1.73,1,2.11,2.11,0,0,1-1.78-1L119,280.45v27.34a2,2,0,1,1-4,0Z" fill="#bfbfbf"/><path d="M160.49,307.47V275a2.09,2.09,0,0,1,2-2.09h22.78a1.89,1.89,0,1,1,0,3.77H164.63v12.52H183a1.91,1.91,0,0,1,1.88,1.89A1.88,1.88,0,0,1,183,293H164.63V305.8h21a1.89,1.89,0,0,1,0,3.77h-23a2.09,2.09,0,0,1-2-2.09" fill="#bfbfbf"/><path d="M208.33,305.74c9.27,0,15.19-6.28,15.19-14.4v-.1c0-8.12-5.92-14.51-15.19-14.51h-8.59v29ZM195.61,275a2.09,2.09,0,0,1,2-2.09h10.68c11.52,0,19.49,7.91,19.49,18.23v.11c0,10.32-8,18.33-19.49,18.33H197.65a2.09,2.09,0,0,1-2-2.09Z" fill="#bfbfbf"/><path d="M237,274.73a2.07,2.07,0,1,1,4.14,0v33a2.07,2.07,0,1,1-4.14,0Z" fill="#bfbfbf"/><path d="M275.52,296.11l-8.43-18.75-8.43,18.75Zm-25.93,10.74,14.88-32.53a2.7,2.7,0,0,1,2.62-1.83h.21a2.64,2.64,0,0,1,2.57,1.83l14.88,32.47a2.79,2.79,0,0,1,.26,1,2,2,0,0,1-2,2,2.26,2.26,0,0,1-2-1.52l-3.82-8.43H257l-3.82,8.54a2.07,2.07,0,0,1-2,1.41,1.88,1.88,0,0,1-1.88-1.88,2.4,2.4,0,0,1,.26-1.1" fill="#bfbfbf"/><path d="M121.65,236.83h-.39a5.6,5.6,0,0,0-5.6,5.6v22.69h11.59V242.42A5.6,5.6,0,0,0,121.65,236.83Z" fill="#bfbfbf"/></svg>