<svg id="Layer_1" data-name="Layer 1" xmlns="http://www.w3.org/2000/svg" viewBox="0 0 400 400"><title>logos-SVG-400x400-playframework-grey</title><polyline points="285.37 184.67 285.37 187.66 289.07 189.34 289.07 211.43 285.58 213.03 285.58 216.03 303.36 216.03 303.36 213.03 299.87 211.43 299.87 182.51 298.96 182.51 285.37 184.67" fill="#bfbfbf"/><path d="M322.24,209.69v-8.78l-2.51.21a4.75,4.75,0,0,0-4.6,5c0,3.62,2,4.81,4,4.81a4.17,4.17,0,0,0,3.07-1.25M314.65,187l-2.3,6.62H306.7V185c3.07-1,6.76-2.51,12.48-2.51,8.71,0,13.94,2.58,13.94,9.9v19l3.48,1.6v2.44a14.49,14.49,0,0,1-6.06,1.32c-3.41,0-6.48-1.12-7-4.6h-.28c-1.46,2.93-5.3,4.67-9.34,4.67-5.78,0-9.41-3.69-9.41-9.13,0-6.69,4.39-7.74,11.57-9.2l6.27-1V193.1c0-4.18-1.25-6.27-5.44-6.27a12.74,12.74,0,0,0-2.3.14" fill="#bfbfbf"/><path d="M337.44,213l3.48-1.6V189.34l-3.62-1.67v-3l13.45-2.16h.91v4.32H352a16.68,16.68,0,0,1,11.29-4.32c5.51,0,8.22,2.72,8.22,8.71v20.14L375,213V216H357.16v-3l3.48-1.6v-17.7c0-3.35-1.46-4.53-4.39-4.53a11.56,11.56,0,0,0-4.46.84V211.5l3.48,1.6V216H337.5v-3" fill="#bfbfbf"/><path d="M270.32,176l-3.62-1.67v-3l13.59-2.16h.91v41.33l3.41,1.88v2.86l-12.89,1.46h-.91v-3.41h-.42a10.4,10.4,0,0,1-8.22,3.55c-6,0-13-3.76-13-16.31,0-13.17,7.25-17.91,15.89-17.91a9.89,9.89,0,0,1,5.23,1.32V176m.07,34.29v-22a5.38,5.38,0,0,0-3.69-1.18c-3.41,0-6,3.07-6,12.27,0,8.08,2.09,11.57,6.34,11.57a8.84,8.84,0,0,0,3.35-.63" fill="#bfbfbf"/><path d="M135.67,226.9c-5.92,0-7.95-2.09-7.95-4.32A5.09,5.09,0,0,1,129,219h11.5c2.65,0,3.9.77,3.9,2.51-.07,3.28-1.88,5.44-8.71,5.44m.07-40.56c2.37,0,3.9,1,3.9,7.53s-1.53,7.18-3.9,7.18-3.83-.56-3.83-7.18S133.37,186.34,135.74,186.34Zm7.18,22.58H131.28a2.24,2.24,0,0,1-2.3-2.09,3.42,3.42,0,0,1,1.39-2.44,16.42,16.42,0,0,0,5.37.7c8.43,0,14.15-3.83,14.15-10.94,0-3.21-1.32-5-3.41-6.83V187l5.44,2h.7v-6.55H152l-8.29,1.67h-.49a22.56,22.56,0,0,0-7.53-1.53c-8.43,0-14.22,4.18-14.22,11.22a10.08,10.08,0,0,0,5.44,9.27v.42c-1.88,1.32-5.51,4-5.51,7.53,0,2.51,1.67,5,5.16,5.78v.35c-3.69.77-7.81,2-7.81,6.2s6.27,7.6,16.59,7.6c12.75,0,18.26-4.88,18.26-12.61C153.65,211.92,150.1,208.92,142.92,208.92Z" fill="#bfbfbf"/><path d="M30,206.9V188.85H25V183.9l5-.7v-6.13l10.8-1.46v7.67H48v5.58H40.82V206c0,3.21.91,4.81,4,4.81a25.22,25.22,0,0,0,3.48-.28v4.25c-1.74,1-5.44,1.88-8.85,1.88-6.41,0-9.48-2.86-9.48-9.76" fill="#bfbfbf"/><path d="M102,186.13c2.72,0,4.18.49,4.18,10l-9.06.56c.14-8.71,1.39-10.59,4.88-10.59m-4.81,14.5h19.44c0-13.73-4.74-18.05-14.5-18.05s-16.1,6.27-16.1,17c0,11.08,5.78,17.21,17,17.21,6,0,10.87-2.65,12.41-4.74v-3.21a27.68,27.68,0,0,1-8.78,1.12c-5.85,0-8.92-3-9.48-9.34" fill="#bfbfbf"/><path d="M224.6,184.67v3l3.62,1.67v22.09l-3.48,1.6v3h18.75v-3l-4.46-1.6V193.31a17,17,0,0,1,7.25-1.18,14.2,14.2,0,0,1,2.72.28v-9.48a5.26,5.26,0,0,0-1.6-.21c-3.55,0-6.48,2.3-8.43,6.69h-.35v-6.9h-.91l-13.1,2.16" fill="#bfbfbf"/><path d="M209.62,209.69v-8.78l-2.51.21a4.75,4.75,0,0,0-4.6,5c0,3.62,2,4.81,4,4.81a4.29,4.29,0,0,0,3.07-1.25M202,187l-2.3,6.62H194V185c3.07-1,6.76-2.51,12.48-2.51,8.71,0,13.94,2.58,13.94,9.9v19l3.48,1.6v2.44a14.49,14.49,0,0,1-6.06,1.32c-3.41,0-6.41-1.12-7-4.6h-.28c-1.46,2.93-5.3,4.67-9.34,4.67-5.78,0-9.41-3.69-9.41-9.13,0-6.69,4.39-7.74,11.57-9.2l6.27-1V193.1c0-4.18-1.25-6.27-5.44-6.27a13.13,13.13,0,0,0-2.3.14" fill="#bfbfbf"/><path d="M157.21,189.34l-3.62-1.67v-3l13.59-2.16h.91v23c0,3.69,1.81,4.39,4.53,4.39a8.69,8.69,0,0,0,3.9-.77V189.34l-3.62-1.67v-3l13.59-2.16h.91v27.88l3.62,1.88v2.86l-13.17,1.46h-.91v-4.32h-.35a12.52,12.52,0,0,1-10,4.46c-6.55,0-9.34-4.67-9.34-10.31V189.34" fill="#bfbfbf"/><path d="M49.25,213l3.48-1.6V175.89l-3.62-1.67v-3l13.45-2.16h.91v17.77h.35a16.68,16.68,0,0,1,11.29-4.32c5.51,0,8.22,2.72,8.22,8.71v20.14l3.48,1.6V216H69v-3l3.48-1.6v-17.7c0-3.35-1.46-4.53-4.39-4.53a11.56,11.56,0,0,0-4.46.84V211.5l3.48,1.6V216H49.25v-3" fill="#bfbfbf"/><path d="M294.23,169.06a5.78,5.78,0,1,1-5.78,5.78,5.77,5.77,0,0,1,5.78-5.78" fill="#bfbfbf"/></svg>