<svg id="Layer_1" data-name="Layer 1" xmlns="http://www.w3.org/2000/svg" viewBox="0 0 400 400"><title>logos-SVG-400x400-playframework-grey</title><path d="M125,168.17a1.45,1.45,0,0,1,.66,1.39v22.91c0,.48.14,1-.52,1.25a1.64,1.64,0,0,1-1.91-.66c-1.86-2.82-3.59-5.75-5.57-8.48a33.57,33.57,0,0,0-14.09-11.5,31.31,31.31,0,0,0-17.64-1.84A19.07,19.07,0,0,0,76.15,176,22.54,22.54,0,0,0,70,186.36a41.29,41.29,0,0,0-1.68,10,103.78,103.78,0,0,0,0,11.59A28.25,28.25,0,0,0,71,220a15.45,15.45,0,0,0,9.09,7.66,27.5,27.5,0,0,0,9,1.59,63.88,63.88,0,0,0,6.45,0,29.09,29.09,0,0,0,8.73-2.27,9.93,9.93,0,0,0,4.16-2.89,4.32,4.32,0,0,0,.91-2.64c0-2.27,0-11.36-.14-13.79a4.34,4.34,0,0,0-4.32-4.23H100c-1,0-1.2-.3-1.2-1.34s.18-1.3,1.2-1.3h33.27c1.09,0,1.11,0,1.11,1.43,0,1-.14,1.11-1.2,1.16a18.18,18.18,0,0,0-3.77.34,4.86,4.86,0,0,0-3.59,4.7V225c0,1-.14,1.2-1.11,1.16A38.63,38.63,0,0,0,112.76,228a128.49,128.49,0,0,1-12.54,2.93c-3,.57-6.14.77-9.2,1a46.68,46.68,0,0,1-11.48-.82,39.54,39.54,0,0,1-17.2-7,29.73,29.73,0,0,1-10.43-13,26.23,26.23,0,0,1-1.82-11.93,31.82,31.82,0,0,1,1.77-8.52,30.41,30.41,0,0,1,11-14.18,43.32,43.32,0,0,1,14.61-6.82,48.45,48.45,0,0,1,11.66-1.57,1.55,1.55,0,0,0,.48-.18h2.27c.18,0,.34.18.48.18a56.06,56.06,0,0,1,12.54,2.27c2.86.77,5.66,1.59,8.52,2.27a8.57,8.57,0,0,0,8.68-2.59l1.68-2A4.75,4.75,0,0,0,125,168.17Z" fill="#bfbfbf"/><path d="M313.75,169.74h34.77c1.3,0,1.48.14,1.48,1.43v19.59c0,.52,0,1.11-.61,1.3a1.48,1.48,0,0,1-1.73-.61c-2.27-3.34-4.66-6.66-7-10-2-2.86-4-5.75-6-8.57a1.27,1.27,0,0,0-1-.48H323.41c-.66,0-.86.25-.82.82v48.22a6.52,6.52,0,0,0,1.2,4.07,5.7,5.7,0,0,0,4.55,2.27h4.32c1.43,0,1.39.23,1.39,1.39s-.34,1.25-1.39,1.25h-38c-1,0-1.09-.23-1.09-1.48s.18-1.11,1.09-1.11h4.41A5.82,5.82,0,0,0,305,222s0-.06,0-.09V173.38c0-.73-.18-1-1-1h-9.82a1.7,1.7,0,0,0-1.55.77c-2.77,4-5.61,8-8.43,12.07q-2.22,3.1-4.36,6.27a1.5,1.5,0,0,1-1.73.61c-.66-.18-.66-.73-.66-1.3V171.13c0-1.25.14-1.39,1.43-1.39Z" fill="#bfbfbf"/><path d="M237.21,230.49h-31.7a1.34,1.34,0,1,1-.3-2.64h5.84a5.45,5.45,0,0,0,5.66-5.24q0-.21,0-.42V177a4.7,4.7,0,0,0-4.7-4.66h-6.7c-1,0-1.2-.25-1.25-1.3s.34-1.34,1.25-1.34h39.82c1,0,1.2.23,1.2,1.3s-.18,1.34-1.16,1.34h-5.7a5.18,5.18,0,0,0-4.93,3,2.55,2.55,0,0,0-.18,1v47.27a4,4,0,0,0,2.27,3.36,5.93,5.93,0,0,0,3.2.86H253.1a1.55,1.55,0,0,0,1.43-.73l13.36-19.29a1.57,1.57,0,0,1,1.86-.66,1.36,1.36,0,0,1,.66.86,4,4,0,0,1,0,1.25v19.77c0,1.2-.25,1.43-1.43,1.43Z" fill="#bfbfbf"/><path d="M177.26,200.35v22.36a5.16,5.16,0,0,0,5.09,5.23h4.3c.73,0,1,.23,1,1,0,1.59,0,1.64-1.64,1.64H150.6c-1,0-1.3-.3-1.3-1.39s.23-1.2,1.25-1.2a48.27,48.27,0,0,0,5.11-.18,4.84,4.84,0,0,0,3.93-3.73,14.21,14.21,0,0,0,.23-2.27V178.29a5.32,5.32,0,0,0-3-5.14,8.14,8.14,0,0,0-2.86-.68,32.34,32.34,0,0,0-3.55,0c-.86,0-1.11-.25-1.11-1.2s.25-1.43,1.11-1.43h36.36c.91,0,1.09.23,1.09,1.11,0,1.48,0,1.48-1.52,1.48a35.4,35.4,0,0,0-4.41.18,5.36,5.36,0,0,0-4.55,5.14Z" fill="#bfbfbf"/></svg>