<svg id="Layer_1" data-name="Layer 1" xmlns="http://www.w3.org/2000/svg" viewBox="0 0 400 400"><title>logos-SVG-400x400-playframework-grey</title><path id="path6289" d="M117.85,183.42c-3.33-1.83-8.27-2.72-15.12-2.72-9.37,0-18.07,1.95-21.36,3.17a2.11,2.11,0,0,0-1.55,2v.24l.92,4.66,0,.09a1.86,1.86,0,0,0,1.8,1.37h0a2.68,2.68,0,0,0,.58-.1l1.56-.36a69.58,69.58,0,0,1,17.14-2.57c4.18,0,7,.36,8.87,1.16,3.06,1.16,3.07,3.13,3.11,6.4v4.89H112a110.22,110.22,0,0,0-16.54,1.2c-10,1.53-18.2,3.91-18.15,17.63,0,17.42,16.16,17.45,23.92,17.47h0a67.45,67.45,0,0,0,13.31-1.44c7.25-1.68,9.1-4,9-11.19v-29c0-4.42,0-9.91-5.67-12.93m-4,44.74a40.6,40.6,0,0,1-12.55,1.89v0c-7.14-.05-14.12-.87-14.13-10,0-7.25,3.91-8.11,8.81-9.2l.34-.08c4.35-.93,15.28-1.11,17.54-1.13v18.5Zm90.41-31.81v29c.1,7.2-1.75,9.5-9,11.19A67.47,67.47,0,0,1,182,237.94h0c-7.76,0-23.92,0-23.92-17.47-.05-13.72,8.19-16.1,18.15-17.63a110.22,110.22,0,0,1,16.54-1.2h1.85v-4.89c0-3.27-.05-5.25-3.11-6.4-1.88-.8-4.69-1.16-8.87-1.16a69.57,69.57,0,0,0-17.14,2.57l-1.56.36a2.68,2.68,0,0,1-.58.1h0a1.86,1.86,0,0,1-1.8-1.37l0-.09-.92-4.66v-.24a2.11,2.11,0,0,1,1.55-2c3.29-1.23,12-3.17,21.36-3.17,6.85,0,11.8.89,15.12,2.72,5.7,3,5.68,8.51,5.67,12.93m-9.65,13.31c-2.25,0-13.18.2-17.54,1.13l-.34.08c-4.89,1.09-8.76,2-8.81,9.2,0,9.11,7,9.93,14.13,10v0a40.6,40.6,0,0,0,12.55-1.89v-18.5Zm155.94-29c-22.5,0-24.41,14.81-24.43,28.67s1.93,28.54,24.43,28.57h0c22.48,0,24.4-14.72,24.43-28.57,0-14.49-1.93-28.64-24.43-28.67m0,49.15c-13.65-.06-14.33-7.06-14.42-20.48.09-13.49.78-20.53,14.42-20.58s14.33,7.1,14.43,20.58c-.09,13.42-.78,20.42-14.42,20.48m-40.38,6-.59.15a54.57,54.57,0,0,1-15,1.89h0c-20.82,0-24.91-10.53-24.93-28.67,0-20.8,6.62-28.54,24.32-28.57a55.8,55.8,0,0,1,13.64,1.55l0-16.75c0-.73.31-1.7,2-2l5.53-1.41h.3c1.27,0,1.72,1.16,1.72,2.12v62.94c.09,4-.38,7.38-7,8.77m-2.6-45.58a54.83,54.83,0,0,0-12.81-1.63c-10.66.1-15.13,3-15.24,20.68.13,19.43,5.91,20.48,15.34,20.58v0a50.17,50.17,0,0,0,12.7-1.72V190.32Zm-49.7,46.31h-4.95a2.28,2.28,0,0,1-2.33-2.33V197c-.09-6.32-2-8.07-8.78-8.17a74.53,74.53,0,0,0-18.05,2.63v42.88a2.21,2.21,0,0,1-2.23,2.33h-5a2.28,2.28,0,0,1-2.33-2.33V192.41c-.07-3.88.29-6.56,5.8-8.34,5.28-1.82,15.38-3.37,22.06-3.37,12.72,0,18.15,4.6,18.17,15.35v38.25a2.28,2.28,0,0,1-2.33,2.33m-112,1h0c2.84-.06,4.94-.62,5.77-1.54A1.41,1.41,0,0,0,152,235a38.57,38.57,0,0,0-.8-4l0-.09a1.52,1.52,0,0,0-1.41-1.39h-.08s-.71,0-1.42,0h0c-2-.06-3.71-.36-3.74-3.32v-62a2,2,0,0,0-1.82-2.12h-.35l-5.54,1.42a2,2,0,0,0-1.88,2v60.92c0,7.21,3.88,11.2,10.9,11.21h0Zm-78.24-1H27.93a2.28,2.28,0,0,1-2.33-2.33v-4.85a3.47,3.47,0,0,1,1.08-2.62L58.28,190.1h-31A2.28,2.28,0,0,1,25,187.77v-3.43A2.28,2.28,0,0,1,27.33,182H67.42a2.28,2.28,0,0,1,2.33,2.33v4.95a3.39,3.39,0,0,1-1,2.45l-31.67,36.8H67.62A2.28,2.28,0,0,1,70,230.86v3.43a2.28,2.28,0,0,1-2.33,2.33" fill="#bfbfbf"/></svg>