<svg id="Layer_1" data-name="Layer 1" xmlns="http://www.w3.org/2000/svg" viewBox="0 0 400 400"><title>logos-SVG-400x400-playframework-grey</title><polygon points="35 171.14 47.65 171.14 47.65 217.19 71.06 217.19 71.06 228.86 35 228.86 35 171.14" fill="#bfbfbf"/><path d="M76.64,189.73H88.79v39.12H76.64Zm6.08-19.44a7,7,0,1,1-7,7,7.05,7.05,0,0,1,7-7" fill="#bfbfbf"/><polygon points="139.6 171.13 151.74 171.13 151.74 205.63 165.51 189.71 180.4 189.71 164.46 207.82 180.07 228.86 164.8 228.86 151.9 209.52 151.74 209.52 151.74 228.86 139.6 228.86 139.6 171.13" fill="#bfbfbf"/><path d="M95.52,189.73h11.67v5.35h.16c1.62-3.08,5.59-6.32,11.5-6.32,12.32,0,14.58,8.1,14.58,18.63v21.45H121.28v-19c0-4.54-.08-10.37-6.32-10.37s-7.29,4.94-7.29,10v19.34H95.52Z" fill="#bfbfbf"/><path d="M206,204.74a7.29,7.29,0,0,0-7.46-7.45c-5.34,0-8.26,3.65-8.58,7.45Zm10.29,17.33a21.39,21.39,0,0,1-16.61,7.78c-12.15,0-21.87-8.11-21.87-20.66s9.72-20.66,21.87-20.66c11.35,0,18.47,8.1,18.47,20.66V213H189.94a9.07,9.07,0,0,0,9.15,7.62c4,0,6.64-2,8.67-4.78Z" fill="#bfbfbf"/><path d="M243.44,199.19c-6.07,0-9.72,4.05-9.72,10s3.64,10,9.72,10,9.73-4,9.73-10-3.65-10-9.73-10m20.91,29.65H253.17v-5.19H253a15.28,15.28,0,0,1-12.08,6.16c-11.67,0-19.37-8.42-19.37-20.33,0-10.94,6.8-21,18-21,5,0,9.73,1.38,12.48,5.18h.16V171.14h12.16Z" fill="#bfbfbf"/><path d="M352.41,159H282.56a6,6,0,0,0-6.05,5.91v70.15a6,6,0,0,0,6.05,5.91h69.85a6,6,0,0,0,6.07-5.91V164.92A6,6,0,0,0,352.41,159Zm-51.59,69.85H288.66V189.75h12.16Zm-6.08-44.46a7,7,0,1,1,7-7.05A7.05,7.05,0,0,1,294.74,184.4Zm51.61,44.46H334.21v-19c0-4.54-.08-10.37-6.32-10.37s-7.3,4.94-7.3,10v19.35H308.45V189.75h11.66v5.34h.16c1.62-3.08,5.59-6.32,11.5-6.32,12.31,0,14.58,8.1,14.58,18.63Z" fill="#bfbfbf"/><polygon points="360.48 226.81 361.14 226.81 361.14 228.86 361.5 228.86 361.5 226.81 362.15 226.81 362.15 226.45 360.48 226.45 360.48 226.81" fill="#bfbfbf"/><polygon points="364.49 226.45 363.78 228.22 363.08 226.45 362.57 226.45 362.57 228.86 362.93 228.86 362.93 227.02 363.67 228.86 363.9 228.86 364.64 227.02 364.64 228.86 365 228.86 365 226.45 364.49 226.45" fill="#bfbfbf"/></svg>