<svg id="Layer_1" data-name="Layer 1" xmlns="http://www.w3.org/2000/svg" viewBox="0 0 400 400"><title>logos-SVG-400x400-playframework-grey</title><g id="g3760"><path id="path4577" d="M77.14,202.45a20.86,20.86,0,1,1-10.42-18,20.79,20.79,0,0,1,10.42,18Z" fill="#bfbfbf"/><g id="g2814"><path id="path2816" d="M107.36,185.45v25.95c0,5.72-5,10.07-11.63,10.07s-11.63-4.35-11.63-10.07V191.54a6.07,6.07,0,0,1,6-6.1h.43v25.9a5.17,5.17,0,0,0,5.39,5,5.05,5.05,0,0,0,5.29-5V191.21a5.79,5.79,0,0,1,5.77-5.77" fill="#bfbfbf"/></g><g id="g2818"><path id="path2820" d="M120.12,194.61c8.84,0,10.26,5,10.26,7.94v18.53h-.28a6.11,6.11,0,0,1-6-6V202.65c0-1.75-.71-3.83-4.16-3.83a9.53,9.53,0,0,0-3.59.57v21.69H110V196.55a29,29,0,0,1,10.16-1.94" fill="#bfbfbf"/></g><g id="g2822"><path id="path2824" d="M139.42,194.61v20.51a6,6,0,0,1-6,6h-.28V194.61Zm-3.12-9.17a3.28,3.28,0,0,1,3.4,3.17,3.24,3.24,0,0,1-3.4,3.07,3.28,3.28,0,0,1-3.45-3.07,3.33,3.33,0,0,1,3.45-3.17" fill="#bfbfbf"/></g><g id="g2826"><path id="path2828" d="M157.42,184.93A15.38,15.38,0,0,1,165.5,187v6.24a7.86,7.86,0,0,0-6.71-3.12c-6.43,0-10.4,6.33-10.4,12.9,0,6.19,4.16,13,10.4,13,2.74,0,5.25-.8,6.71-2.79v6.14c-1.84,1.37-4.73,2.13-8.13,2.13-10.21,0-15.6-9.36-15.6-18.39s5.39-18.15,15.64-18.15" fill="#bfbfbf"/></g><g id="g2830"><path id="path2832" d="M176.69,194.61a23.8,23.8,0,0,1,3.54.28V200a6.53,6.53,0,0,0-6.33-.38v15.55a6,6,0,0,1-6,6h-.33V196.65a19.09,19.09,0,0,1,9.07-2" fill="#bfbfbf"/></g><g id="g2834"><path id="path2836" d="M196.68,204.54c-.19-5.25-3.45-5.81-5.2-5.81h-.24c-3.54.09-5.2,2.6-5.2,7.28Zm5.48,3.59-15.74,2.17c.52,4.3,2.7,6.57,6.66,6.57a12.8,12.8,0,0,0,8.22-2.55v5.25a19.13,19.13,0,0,1-8.84,1.89c-7.7,0-12.29-5.2-12.29-13.52,0-8.08,4.25-13.33,11.25-13.33s10.73,4.59,10.73,12.53" fill="#bfbfbf"/></g><g id="g2838"><path id="path2840" d="M218.67,199.72a7.86,7.86,0,0,0-2.17-.28c-5.2,0-6.29,5-6.29,9.17,0,5.82,1.94,8.7,5.86,8.7a20.8,20.8,0,0,0,2.6-.24Zm6.19-14.27v35.31a65.2,65.2,0,0,1-8.56.71h-.42c-7.7-.09-11.91-4.54-11.91-12.53s4.4-13.28,11.2-13.28a14.85,14.85,0,0,1,3.45.38v-4.58a6,6,0,0,1,6-6" fill="#bfbfbf"/></g><g id="g2842"><path id="path2844" d="M234.05,194.61v20.51a6,6,0,0,1-6,6h-.28V194.61Zm-3.12-9.17a3.29,3.29,0,0,1,3.4,3.17,3.24,3.24,0,0,1-3.4,3.07,3.28,3.28,0,0,1-3.45-3.07,3.33,3.33,0,0,1,3.45-3.17" fill="#bfbfbf"/></g><g id="g2846"><path id="path2848" d="M245.1,185.45v9.17h4.06v5.06H245.1v14c0,1.7.57,2.22,2.41,2.22a5.19,5.19,0,0,0,1.65-.33v5.24a8.93,8.93,0,0,1-3.17.61c-4.63,0-7.18-2.27-7.18-6.38V199.67h-2.74v-5.06h2.74V191.4a6,6,0,0,1,5.91-6" fill="#bfbfbf"/></g><g id="g2850"><path id="path2852" d="M284,200v20.33a65.81,65.81,0,0,1-8.87.7h-1c-10.42,0-17.47-6.76-17.47-18.45,0-10.56,6.39-17.84,16.2-17.84a17.53,17.53,0,0,1,8.73,2.21v6.1a10.56,10.56,0,0,0-7.94-3.15c-6.67,0-10.52,4.84-10.52,13,0,9.11,5.73,12.3,12.82,12.3h1.88v-9.91H272V205a5,5,0,0,1,5-5" fill="#bfbfbf"/></g><g id="g2854"><path id="path2856" d="M295.58,194.37a23.66,23.66,0,0,1,3.52.28v5a6.48,6.48,0,0,0-6.29-.38v15.45a6,6,0,0,1-5.92,5.92h-.33V196.39a19,19,0,0,1,9-2" fill="#bfbfbf"/></g><g id="g2858"><path id="path2860" d="M315.82,207.66c0-2.68-.66-9.11-5.59-9.11s-5.49,7-5.49,9.11.42,8.92,5.49,8.92,5.59-6.86,5.59-8.92m5.82,0c0,8.12-4.37,13.33-11.41,13.33s-11.41-5.21-11.41-13.33,4.27-13.33,11.41-13.33,11.41,5.12,11.41,13.33" fill="#bfbfbf"/></g><g id="g2862"><path id="path2864" d="M343.77,194.37v26c-2.3.28-6.2.7-8.5.7h-1.55c-6.67,0-10.1-3-10.1-8.87V200.43a6,6,0,0,1,6.06-6.06H330V212.5a3.58,3.58,0,0,0,3.94,3.94,29.07,29.07,0,0,0,3.52-.23V200.43a6,6,0,0,1,6-6.06" fill="#bfbfbf"/></g><g id="g2868"><g id="g2874"><path id="path2876" d="M360.76,207.61c0-6.29-1.78-9.25-5.87-9.25a7.55,7.55,0,0,0-2.63.42v17.89a6.1,6.1,0,0,0,2.21.33c5.21,0,6.29-5.16,6.29-9.39m6.25-.19c0,8.17-4.46,13.62-11.27,13.62a14.07,14.07,0,0,1-3.48-.42v4.55a5.91,5.91,0,0,1-5.87,5.92h-.33V196.3l.14-.09a18.79,18.79,0,0,1,8.83-1.83c7.47,0,12,4.93,12,13.05" fill="#bfbfbf"/></g></g><g id="g2762"><path id="path2764" d="M54.87,196.5s2.39-3.09,2.61-3.47.32-.68-.33-1.09-2.81-1.67-3.24-2-.36-1.54.91-1.8,12.25-1.16,16.52-.71,3.7,1.67,3.72,2.66-1.72,2.41-4,4.5c0,0-3.85,3.57-6.65,6s-11.79,10-13.54,11.39-8.51,6.4-9,6.73-1.67,1.32-2.34.63,0-1.46.34-1.93,14-19.73,15-20.95" fill="#fff"/></g></g></svg>