<svg id="Layer_1" data-name="Layer 1" xmlns="http://www.w3.org/2000/svg" viewBox="0 0 400 400"><title>logos-SVG-400x400-playframework-grey</title><g id="layer1"><g id="g3104"><path id="path3001" d="M75,186.79H61.2L50.51,221.26h-.2L39.61,186.79H25l17.36,50.48h15.5Z" fill="#bfbfbf"/><path id="path3003" d="M124.06,216.09c0-.26,0-1.64,0-2.22a10.06,10.06,0,0,0,.1-1.16,33.33,33.33,0,0,0-1.62-10.45,26.8,26.8,0,0,0-4.71-8.71,21.76,21.76,0,0,0-7.75-6,24.85,24.85,0,0,0-10.64-2.18,27.23,27.23,0,0,0-10.5,2A23.9,23.9,0,0,0,80.7,193a25,25,0,0,0-5.3,8.42,28.84,28.84,0,0,0-1.86,10.45,30.21,30.21,0,0,0,1.82,10.6,24.18,24.18,0,0,0,5.2,8.42A24.84,24.84,0,0,0,89,236.74a27.52,27.52,0,0,0,10.41,1.89q8.83,0,14.86-4.12A24.26,24.26,0,0,0,123.85,222H109.67c-1,1.4-1.11,2.5-2.87,3.65a9.3,9.3,0,0,1-6.09,1.7c-3.92,0-6.65-.52-8.74-2.59s-3.24-4.3-3.44-8.62ZM88.37,205.69a10.24,10.24,0,0,1,.57-3A9.75,9.75,0,0,1,91,199.55a10.56,10.56,0,0,1,3.58-2.71,12.58,12.58,0,0,1,5-.82c3.1.23,3.88.86,6,2.45,1.68,2.14,3,3.61,3.66,7.22Z" fill="#bfbfbf"/><g id="g3026"><path id="path3024" d="M164.87,237H179.5V186.66H164.87Z" fill="#bfbfbf"/><path id="path3007" d="M179.5,168.64H164.87v13H179.5Z" fill="#bfbfbf"/></g><path id="path3011" d="M228.41,212.2q0,12.06,7.16,19.37t19,7.31q12,0,19.13-7.31t7.16-19.37q0-12.16-7.16-19.47t-19.13-7.31q-11.87,0-19,7.31T228.41,212.2Zm13.93,0a28.44,28.44,0,0,1,.64-6.13,16.64,16.64,0,0,1,2.06-5.2,10.2,10.2,0,0,1,3.83-3.63,11.72,11.72,0,0,1,5.74-1.32,11.94,11.94,0,0,1,5.84,1.32,10.2,10.2,0,0,1,3.83,3.63,16.64,16.64,0,0,1,2.06,5.2,28.45,28.45,0,0,1,.64,6.13,27.77,27.77,0,0,1-.64,6.08,16.67,16.67,0,0,1-2.06,5.15,10.2,10.2,0,0,1-3.83,3.63,11.94,11.94,0,0,1-5.84,1.32,11.72,11.72,0,0,1-5.74-1.32,10.2,10.2,0,0,1-3.83-3.63,16.67,16.67,0,0,1-2.06-5.15A27.77,27.77,0,0,1,242.34,212.2Z" fill="#bfbfbf"/><path id="path3013" d="M285.18,236.71h15.21V210.53c0-5.09.69-7.15,2.42-9.38s3.67-3.33,7.54-3.33c3.26,0,4.2,1,5.6,3s2.1,3.5,2.1,7.68v28.21h15.57V206a39.18,39.18,0,0,0-.85-8.65,15.44,15.44,0,0,0-3-6.38,13.79,13.79,0,0,0-5.84-4.11c-2.46-1-4.49-1.92-8.15-1.92a25,25,0,0,0-10,2.54c-2.83,1.74-4.27,4.21-5.89,6.25v-7H285.18Z" fill="#bfbfbf"/><path id="path3030" d="M351.06,211.35h-6.57l-11-24.88h7.28l7,16,19.72-41.31H375Z" fill="#bfbfbf"/><path id="path3053" d="M128.8,186.92h14.25V195c4.93-7.56,10.8-10.08,17.08-8.49l-.1,13.54c-7.29-1-13.28,1-16.27,9.9v26.88H128.9Z" fill="#bfbfbf"/><path id="path3055" d="M227.26,236.83H184.62V225.12L208,198.63H184.73V186.91H226v11.71l-23.88,26.72h25.13Z" fill="#bfbfbf"/></g></g></svg>