<svg id="Layer_1" data-name="Layer 1" xmlns="http://www.w3.org/2000/svg" viewBox="0 0 400 400"><title>logos-SVG-400x400-playframework-grey</title><path d="M216.93,198.17a45.08,45.08,0,0,0-5.51-2.92s-6.52-3-7.81-4.46c0,0-2.54-2.39-1.05-5.17,0,0,.62-1.82,3.31-1.82,0,0,3.49.19,3.49,3.06v4.05h12.53l0-6s1-9.77-14.75-10.2c0,0-12.36-.81-15.9,5.84,0,0-1.39,1.48-1.39,6.66V191s-.14,4.31,2.06,7.09a16.28,16.28,0,0,0,4.31,3.83s6.23,3.35,10,5.27c0,0,3.77,2.15,3.28,5.58a3.69,3.69,0,0,1-4,3.37,3.48,3.48,0,0,1-3.33-3.6v-4H188.79v5.88s-.38,11.25,16.78,11.25c0,0,16.38.33,17.15-11.55v-4.79s.58-7.28-5.79-11.11Z" fill="#bfbfbf"/><polygon points="152.81 176.15 148.61 202.43 147.63 202.43 143.63 176.38 122.7 176.38 121.66 223.97 134.04 223.97 134.19 188.12 135.17 188.12 141.73 223.97 154.76 223.97 161.25 188.13 162.11 188.13 162.41 223.97 174.86 223.97 173.52 176.15 152.81 176.15 152.81 176.15" fill="#bfbfbf"/><polygon points="79.07 176.35 70.83 223.92 84.16 223.92 89.05 187.03 90.14 187.03 95.02 223.92 108.36 223.92 100.12 176.35 79.07 176.35 79.07 176.35" fill="#bfbfbf"/><path d="M358.87,197.52v7h3.42v7.53c0,3.68-3.15,3.75-3.15,3.75a3.37,3.37,0,0,1-3.68-3.5V186.26c0-2.69,3.4-2.83,3.4-2.83a3.18,3.18,0,0,1,3.28,3.2v4H374.7c.41-7.73-1.13-9.6-1.13-9.6-3.11-7-14.89-6.61-14.89-6.61-18.11,0-16.1,13.89-16.1,13.89v25.2c.39,13,18.23,11.71,18.53,11.69,7.94-.88,10.33-3.4,10.33-3.4a7.73,7.73,0,0,0,2.78-3.91c.63-1.32.79-5.53.79-5.53v-14.8Z" fill="#bfbfbf"/><polygon points="317.26 205.26 316.71 205.26 303.97 176.16 288.73 176.16 288.73 223.98 301.13 223.98 300.39 194.88 300.94 194.88 314.14 223.98 328.93 223.98 328.93 176.16 316.37 176.16 317.26 205.26 317.26 205.26" fill="#bfbfbf"/><path d="M258.44,212.07S258.62,216,255,216a3.59,3.59,0,0,1-3.83-3.83l0-36H237.51v35.69s-1.4,13.51,17.66,13.51c0,0,16.57.2,16.57-12.89V176.19h-13.3v35.88Z" fill="#bfbfbf"/><path d="M53.13,198.17a44.82,44.82,0,0,0-5.51-2.92s-6.51-3-7.81-4.46c0,0-2.54-2.4-1.05-5.17,0,0,.62-1.82,3.3-1.82,0,0,3.5.19,3.5,3.06v4.05H58.09l0-6s1-9.77-14.75-10.2a28,28,0,0,0-2.92,0s-9.52.51-12.92,5.73l-.07.1S26,182.08,26,187.25V191s-.14,4.31,2.06,7.09a16.26,16.26,0,0,0,4.31,3.83s6.22,3.35,10,5.27c0,0,3.78,2.15,3.28,5.58a3.7,3.7,0,0,1-3.95,3.37,3.48,3.48,0,0,1-3.33-3.6v-4.05H25v5.89s-.37,11.25,16.78,11.25c0,0,16.38.33,17.15-11.55v-4.79s.57-7.28-5.8-11.11Z" fill="#bfbfbf"/></svg>