<?xml version="1.0" encoding="UTF-8" standalone="no"?>
<svg
   xmlns:dc="http://purl.org/dc/elements/1.1/"
   xmlns:cc="http://creativecommons.org/ns#"
   xmlns:rdf="http://www.w3.org/1999/02/22-rdf-syntax-ns#"
   xmlns:svg="http://www.w3.org/2000/svg"
   xmlns="http://www.w3.org/2000/svg"
   xmlns:sodipodi="http://sodipodi.sourceforge.net/DTD/sodipodi-0.dtd"
   xmlns:inkscape="http://www.inkscape.org/namespaces/inkscape"
   width="300"
   height="300"
   viewBox="0 0 300 300"
   version="1.1"
   id="svg43"
   sodipodi:docname="opencollectivelogo_new.svg"
   inkscape:version="0.92.3 (2405546, 2018-03-11)">
  <metadata
     id="metadata47">
    <rdf:RDF>
      <cc:Work
         rdf:about="">
        <dc:format>image/svg+xml</dc:format>
        <dc:type
           rdf:resource="http://purl.org/dc/dcmitype/StillImage" />
        <dc:title>Rectangle</dc:title>
      </cc:Work>
    </rdf:RDF>
  </metadata>
  <sodipodi:namedview
     pagecolor="#ffffff"
     bordercolor="#666666"
     borderopacity="1"
     objecttolerance="10"
     gridtolerance="10"
     guidetolerance="10"
     inkscape:pageopacity="0"
     inkscape:pageshadow="2"
     inkscape:window-width="2560"
     inkscape:window-height="1335"
     id="namedview45"
     showgrid="false"
     inkscape:zoom="1.3369803"
     inkscape:cx="310.77496"
     inkscape:cy="17.999998"
     inkscape:window-x="0"
     inkscape:window-y="36"
     inkscape:window-maximized="1"
     inkscape:current-layer="svg43" />
  <!-- Generator: Sketch 42 (36781) - http://www.bohemiancoding.com/sketch -->
  <title
     id="title2">Rectangle</title>
  <desc
     id="desc4">Created with Sketch.</desc>
  <defs
     id="defs6" />
  <g
     id="icon"
     transform="scale(7.8947368)">
    <path
       d="M 34.619424,8.1788001 C 36.750849,11.249527 38,14.978886 38,19 c 0,4.021114 -1.249151,7.750473 -3.380576,10.8212 L 29.697678,24.899453 C 30.664174,23.150605 31.214286,21.139545 31.214286,19 c 0,-2.139545 -0.550112,-4.150605 -1.516608,-5.899453 z M 29.8212,3.3805755 24.899453,8.3023222 C 23.150605,7.3358258 21.139545,6.7857143 19,6.7857143 12.254236,6.7857143 6.7857143,12.254236 6.7857143,19 c 0,6.745764 5.4685217,12.214286 12.2142857,12.214286 2.139545,0 4.150605,-0.550112 5.899453,-1.516608 L 29.8212,34.619424 C 26.750473,36.750849 23.021114,38 19,38 8.5065898,38 0,29.49341 0,19 0,8.5065898 8.5065898,0 19,0 c 4.021114,0 7.750473,1.2491511 10.8212,3.3805755 z"
       id="Combined-Shape-Copy-2"
       inkscape:connector-curvature="0"
       style="fill:#7fadf2" />
    <path
       d="M 34.619424,8.1788001 C 36.750849,11.249527 38,14.978886 38,19 c 0,4.021114 -1.249151,7.750473 -3.380576,10.8212 L 29.697678,24.899453 C 30.664174,23.150605 31.214286,21.139545 31.214286,19 c 0,-2.139545 -0.550112,-4.150605 -1.516608,-5.899453 z"
       id="closing-o"
       inkscape:connector-curvature="0"
       style="fill:#b8d3f4" />
  </g>
</svg>
